<svg width="394" height="853" viewBox="0 0 394 853" fill="none" xmlns="http://www.w3.org/2000/svg">
<g filter="url(#filter0_f_118_1140)">
<path fill-rule="evenodd" clip-rule="evenodd" d="M476.879 390.18C477.704 438.067 491.767 463.991 504.74 487.904C521.256 518.351 536.004 545.538 519.414 610.645C510.872 644.166 492.31 665.73 469.587 678.732C469.114 673.225 468.698 667.721 468.286 662.265C466.054 632.718 463.924 604.534 453.426 584.391C428.502 536.567 383.845 537.808 353.385 547.042C344.949 549.599 334.682 554.845 324.167 563.054C318.341 541.126 312.048 519.726 305.43 499.085C281.491 424.423 255.369 355.704 204.533 338.941C212.552 325.726 222.303 316.933 232.377 307.85C251.3 290.787 271.361 272.698 283.224 222.34C287.484 204.256 289.73 188.57 290.612 174.628C292.55 143.982 287.894 121.752 283.539 100.958C277.888 73.9766 272.744 49.411 283.163 12.0095C285.791 2.57596 289.567 -6.60824 294.309 -15.3388C329.453 -80.0378 417.717 -119.826 485.972 -51.5685C563.437 25.8996 570.838 115.247 557.949 177.981C552.694 203.56 538.242 229.756 522.969 257.44C500.784 297.653 476.865 341.008 476.879 390.18Z" fill="#81FFD1"/>
<path d="M130.449 1148.58C185.744 1076.61 217.421 1157.08 283.47 1076.58C307.825 1046.89 328.319 1011.56 342.357 968.859C312.27 943.368 305.542 886.725 305.528 839.756C305.52 811.884 296.78 797.985 287.39 783.053C275.646 764.377 262.886 744.086 264.921 692.823C265.784 671.075 269.463 651.993 274.983 635.407C229.328 585.09 180.424 501.93 185.554 414.249C187.72 377.22 194.869 354.869 204.533 338.941C203.4 338.567 202.254 338.219 201.096 337.898C134.711 319.467 53.2621 350.46 41.7422 453.036C28.868 567.671 82.3485 595.09 104.499 679.954C126.65 764.818 54.7582 831.259 16.066 932.746C-22.6263 1034.23 -2.31602 1130.17 29.0395 1163.37C60.395 1196.57 97.2628 1191.77 130.449 1148.58Z" fill="#FFE681"/>
<path d="M381.168 982.456C456.767 982.434 524.19 831.124 486.203 753.644C475.429 731.669 471.854 705.15 469.587 678.732C432.611 699.889 384.615 698.377 350.839 688.824C358.309 736.531 362.673 784.66 362.686 831.17C362.701 884.176 355.254 929.628 342.357 968.859C352.454 977.414 365.181 982.46 381.168 982.456Z" fill="#81BEFF"/>
<path d="M453.426 584.391C428.502 536.567 383.845 537.808 353.385 547.042C344.949 549.599 334.682 554.845 324.167 563.054C334.955 603.657 344.144 646.071 350.839 688.824C384.615 698.377 432.611 699.889 469.587 678.732C469.114 673.225 468.698 667.721 468.286 662.265C466.054 632.718 463.924 604.534 453.426 584.391Z" fill="#84E2FF"/>
<path d="M204.533 338.941C194.869 354.869 187.72 377.22 185.554 414.249C180.424 501.93 229.328 585.09 274.983 635.407C286.392 601.12 305.664 577.499 324.167 563.054C318.341 541.126 312.048 519.726 305.43 499.085C281.491 424.423 255.369 355.704 204.533 338.941Z" fill="#FFC481"/>
<path d="M274.983 635.407C294.655 657.088 313.725 672.671 327.609 679.89C334.064 683.246 341.96 686.313 350.839 688.824C344.144 646.071 334.955 603.657 324.167 563.054C305.664 577.499 286.392 601.12 274.983 635.407Z" fill="#FF727E"/>
<path d="M274.983 635.407C269.463 651.993 265.784 671.075 264.921 692.823C262.886 744.086 275.646 764.377 287.39 783.053C296.78 797.985 305.52 811.884 305.528 839.756C305.542 886.725 312.27 943.368 342.357 968.859C355.254 929.628 362.701 884.176 362.686 831.17C362.673 784.66 358.309 736.531 350.839 688.824C341.96 686.313 334.064 683.246 327.609 679.89C313.725 672.671 294.655 657.088 274.983 635.407Z" fill="#9A81FF"/>
<path d="M101.152 -112.345C93.3556 -32.6955 118.185 21.8009 153.411 46.7022C170.958 59.106 180.085 92.7233 188.969 125.439C197.432 156.611 205.674 186.964 220.764 197.37C230.626 187.702 237.015 171.407 237.007 143.672C236.986 71.3184 224.193 69.7292 207.745 67.6862C199.537 66.6666 190.418 65.5339 181.524 55.4361C170.941 43.4228 168.723 22.6084 166.245 -0.642053C161.815 -42.2185 156.554 -91.5845 101.152 -112.345Z" fill="#B9B9B9"/>
<path d="M-12.9835 283.868C42.7004 339.554 101.48 314.151 115.728 240.841C124.917 193.555 188.323 226.785 219.616 198.452C220.003 198.101 220.386 197.74 220.764 197.37C205.674 186.964 197.432 156.611 188.969 125.439C180.085 92.7233 170.958 59.106 153.411 46.7022C118.185 21.8009 93.3556 -32.6955 101.152 -112.345C97.2153 -113.82 93.0251 -115.151 88.5639 -116.324C-4.03844 -140.68 26.6582 3.60766 26.6763 66.2594C26.7034 160.574 -195.49 101.355 -12.9835 283.868Z" fill="#FF946D"/>
<path fill-rule="evenodd" clip-rule="evenodd" d="M339.915 82.3533C342.887 54.0209 332.274 41.0067 319.518 25.3654C310.921 14.8227 301.349 3.08639 294.309 -15.3388C289.567 -6.60824 285.791 2.57596 283.163 12.0095C272.744 49.411 277.888 73.9766 283.539 100.958C287.894 121.752 292.55 143.982 290.612 174.628C315.858 153.19 335.91 120.525 339.915 82.3533Z" fill="#77FF92"/>
<path d="M283.539 100.958C277.888 73.9766 272.744 49.411 283.163 12.0095C285.791 2.57596 289.567 -6.60824 294.309 -15.3388C288.199 -31.3277 283.995 -52.3536 283.987 -82.0074C283.966 -153.417 261.054 -227.515 221.329 -234.914C181.605 -242.313 121.687 -233.538 104.882 -139.218C103.234 -129.967 102 -121.007 101.152 -112.345C156.554 -91.5845 161.815 -42.2185 166.245 -0.642053C168.723 22.6084 170.941 43.4228 181.524 55.4361C190.418 65.5339 199.537 66.6666 207.745 67.6862C224.193 69.7292 236.986 71.3184 237.007 143.672C237.015 171.407 230.626 187.702 220.764 197.37C225.089 200.352 229.977 201.696 235.593 200.95C254.069 198.498 273.529 189.133 290.612 174.628C292.55 143.982 287.894 121.752 283.539 100.958Z" fill="#C3FF8B"/>
</g>
<defs>
<filter id="filter0_f_118_1140" x="-234.949" y="-386.944" width="947.986" height="1722.04" filterUnits="userSpaceOnUse" color-interpolation-filters="sRGB">
<feFlood flood-opacity="0" result="BackgroundImageFix"/>
<feBlend mode="normal" in="SourceGraphic" in2="BackgroundImageFix" result="shape"/>
<feGaussianBlur stdDeviation="75" result="effect1_foregroundBlur_118_1140"/>
</filter>
</defs>
</svg>
